PathFileType	4	(X/Y/Z)	/Users/niels/Desktop/University/Third Semester/Perception and Action/Exam/Gymnastics Motion Tracking/Code for Gym Tracking/Analyzed Data/Start Salto/stsalto_bad_id1_1_Sports2D/stsalto_bad_id1_1_Sports2D_px_person00.trc
DataRate	CameraRate	NumFrames	NumMarkers	Units	OrigDataRate	OrigDataStartFrame	OrigNumFrames
29.774436090225564	29.774436090225564	7	22	m	29.774436090225564	99	133
Frame#	Time	Hip			RHip			RKnee			RAnkle			RBigToe			RSmallToe			RHeel			LHip			LKnee			LAnkle			LBigToe			LSmallToe			LHeel			Neck			Head			Nose			RShoulder			RElbow			RWrist			LShoulder			LElbow			LWrist		
		X1	Y1	Z1	X2	Y2	Z2	X3	Y3	Z3	X4	Y4	Z4	X5	Y5	Z5	X6	Y6	Z6	X7	Y7	Z7	X8	Y8	Z8	X9	Y9	Z9	X10	Y10	Z10	X11	Y11	Z11	X12	Y12	Z12	X13	Y13	Z13	X14	Y14	Z14	X15	Y15	Z15	X16	Y16	Z16	X17	Y17	Z17	X18	Y18	Z18	X19	Y19	Z19	X20	Y20	Z20	X21	Y21	Z21	X22	Y22	Z22
99	3.325	1.6712639554031323	-0.4884521375622988	0.0	1.6987011709715343	-0.47148777776332695	0.0	1.8352006098318285	-0.5677631206355533	0.0	1.8965715354258643	-0.7119773069877617	0.0	1.9240376586445953	-0.7236690301033282	0.0	1.9307707349759617	-0.7303628698646498	0.0	1.8953109954916805	-0.7307114791168656	0.0	1.6494414668594737	-0.5070087037983944	0.0	1.7064724996816902	-0.6448400134232235	0.0	1.7181155149584482	-0.78595734070821	0.0	1.7571157320393571	-0.7929695084535007	0.0	1.7381363406384005	-0.7958258937274109	0.0	1.7154165079048442	-0.8033839181881371	0.0	1.5807069346842464	-0.3331447436789445	0.0	1.5668027450441744	-0.2388866105666473	0.0	1.607023786500695	-0.27639117984514305	0.0	1.6163059452220614	-0.3296807089201121	0.0	1.6658599860821632	-0.3947908879941773	0.0	1.764734341661142	-0.3833449606608224	0.0	1.55035258288182	-0.3787463489954983	0.0	1.5367790786745859	-0.4592126901584721	0.0	1.5162273425561734	-0.48712418831980714	0.0
100	3.3585858585858586	1.6822129197164661	-0.4940094242840303	0.0	1.710587903009672	-0.4788860023557746	0.0	1.837572006464707	-0.5862526595433314	0.0	1.8935026556298629	-0.7309992755055832	0.0	1.9215707139490987	-0.7401764288263584	0.0	1.927246337286071	-0.7475345957325833	0.0	1.891328309743428	-0.749327417064064	0.0	1.6601335051905306	-0.511953207549225	0.0	1.7132382973065645	-0.6488208408031491	0.0	1.719054151558895	-0.7886446500540233	0.0	1.7553736793127344	-0.7932070449127179	0.0	1.7364980711444447	-0.7964165093418593	0.0	1.7161859665923898	-0.8058043466144309	0.0	1.5974924133083432	-0.33358577596971295	0.0	1.582828686245471	-0.24134012168947616	0.0	1.6231857963219631	-0.2778642779860503	0.0	1.6354475781009272	-0.3321367822617785	0.0	1.687498986373128	-0.39613625108280626	0.0	1.7893947304928401	-0.38599531124999104	0.0	1.5664765259076538	-0.3810718048098594	0.0	1.5547107183956124	-0.4617852628037201	0.0	1.5353155314525566	-0.49512479706406787	0.0
101	3.3921717171717174	1.6933808440854168	-0.49903770489797145	0.0	1.7223849978817094	-0.48608901866243814	0.0	1.8387374943534915	-0.6034531230783609	0.0	1.890221464496976	-0.7481060489465097	0.0	1.9202379325286827	-0.7547880600450994	0.0	1.9247907401319413	-0.762327023719922	0.0	1.8875975428872709	-0.7661754770183874	0.0	1.6711658554639373	-0.5162032295084897	0.0	1.7214218884433885	-0.6516768020762805	0.0	1.719996137422581	-0.7899377575891375	0.0	1.755220452306269	-0.7931200428739059	0.0	1.7367413749026905	-0.7962547364458713	0.0	1.7166088661171799	-0.8069939428490368	0.0	1.6141305971644173	-0.3336434329470281	0.0	1.5994547859422206	-0.24357641574212097	0.0	1.6395625086391978	-0.27953348648081233	0.0	1.6546848315275597	-0.3339172039272422	0.0	1.7097885000143338	-0.3971263562318743	0.0	1.814113170068052	-0.38823686529314283	0.0	1.5824172636215998	-0.3838224094701038	0.0	1.5726560157455212	-0.463846393652415	0.0	1.5548705255774147	-0.5020919042608537	0.0
102	3.425757575757576	1.704606618442428	-0.5032588480547382	0.0	1.7340551726274402	-0.4925121345674541	0.0	1.8391412959328723	-0.6186711698692756	0.0	1.8874240928542858	-0.7627519301503722	0.0	1.9200704073007027	-0.7671881371114253	0.0	1.9235487509604103	-0.7744979378209544	0.0	1.8847606985687315	-0.7804999375297383	0.0	1.6823416790606645	-0.5196231366141225	0.0	1.7307678252019143	-0.653509990449869	0.0	1.7209497371333087	-0.7896420465396086	0.0	1.7559716445876237	-0.7924852024574711	0.0	1.7377162342889443	-0.7951434577101747	0.0	1.7167629365702868	-0.8067069451452207	0.0	1.6306092576367806	-0.3334872102411115	0.0	1.6161288609410067	-0.2454841156212002	0.0	1.655766261233301	-0.28111659794510435	0.0	1.6736995822788054	-0.33494996415489037	0.0	1.7322252912605252	-0.3977547373217588	0.0	1.8380371988079467	-0.39006835383051525	0.0	1.5980771976370762	-0.3868412004115827	0.0	1.5904035045709999	-0.46564303395441553	0.0	1.5743075980193413	-0.5080490181518311	0.0
103	3.4593434343434346	1.7155878023188769	-0.5064393624455791	0.0	1.7453957879068642	-0.49760980504112934	0.0	1.8394655736827579	-0.63099336513467	0.0	1.8857460000633963	-0.7742706106880705	0.0	1.9209403147262067	-0.7768810306650337	0.0	1.92345311228829	-0.7837579474873438	0.0	1.8832959907554359	-0.7914541332880674	0.0	1.6933291331781832	-0.5221004557272662	0.0	1.7409637862407943	-0.6543829818050445	0.0	1.722016616974065	-0.7874860725425975	0.0	1.7570405709178347	-0.791434957307973	0.0	1.7386677211246273	-0.7932635220517962	0.0	1.7167392467457188	-0.8046163836300384	0.0	1.6467085223896576	-0.33322373158744123	0.0	1.6321913774661312	-0.24690611399975215	0.0	1.6713390100342898	-0.2823211536572499	0.0	1.6919387827529504	-0.3352872980790155	0.0	1.754039627340234	-0.397997179975822	0.0	1.859810168139054	-0.39143889557494227	0.0	1.6132271509561853	-0.3896967968441114	0.0	1.6075420109176743	-0.46716724520726033	0.0	1.592911824347955	-0.5129244328163847	0.0
104	3.492929292929293	1.7261830424372162	-0.5085268141323926	0.0	1.7562847470039442	-0.5011381596962923	0.0	1.8406064950702183	-0.6398709960021176	0.0	1.885411459902926	-0.7825100093864261	0.0	1.922531231810502	-0.7839393238148032	0.0	1.9241729539945358	-0.790356912783221	0.0	1.8831955344047475	-0.7988686164923992	0.0	1.7039438965309275	-0.5236265360815734	0.0	1.7519313978895932	-0.6543549760375923	0.0	1.723384026566071	-0.783246056567363	0.0	1.7583456919781908	-0.7904342518883216	0.0	1.7397256406553985	-0.7911569130046532	0.0	1.7166637664683717	-0.8003663363803873	0.0	1.6623585817284932	-0.3328112211368404	0.0	1.6475136113132502	-0.24770663987681502	0.0	1.6862742319201427	-0.2829591861682817	0.0	1.7091110478806282	-0.3350429073428579	0.0	1.774878741675402	-0.39788362684969086	0.0	1.8783953649101237	-0.392315019789169	0.0	1.6278799544079594	-0.39176475520055326	0.0	1.6239410256669915	-0.4681691891427397	0.0	1.6103607553540602	-0.5166831346415854	0.0
105	3.526515151515152	1.7364795581956527	-0.5096367907429067	0.0	1.766748477966841	-0.5031832525534341	0.0	1.8434413195536716	-0.6452642947334171	0.0	1.8862496492967575	-0.787871619360334	0.0	1.9244644674180997	-0.7889573478706939	0.0	1.9252572540040531	-0.7949754581519254	0.0	1.884062848117678	-0.8032807234529891	0.0	1.7142536394840677	-0.5242935308948358	0.0	1.7638255954038913	-0.6534329905916915	0.0	1.7252627848423943	-0.7767746701844594	0.0	1.760099657303403	-0.7898815706695254	0.0	1.7414973793389532	-0.7893189044802965	0.0	1.7166807402991253	-0.7935660551168576	0.0	1.6776661000625603	-0.33210306166167425	0.0	1.6624315192178056	-0.24780384208518516	0.0	1.7009669679592838	-0.28295117469813313	0.0	1.725267330023007	-0.33430868107864964	0.0	1.79485330151516	-0.39745590339216463	0.0	1.8932979762128337	-0.3926336606230292	0.0	1.6422980200038437	-0.39249499666477755	0.0	1.6397295978590314	-0.46844143141829436	0.0	1.626742999632295	-0.5194035341794484	0.0
